# xmcd
#
# Track frame offsets:
#  217
#  10492
#  20642
#  34577
#  42355
#  51835
#  63950
#  73372
#  85112
#  92240
#  105050
#  114925
#
# Disc length: 1666 seconds
#
# Revision: 0
# Processed by: cddbd v1.5.2PL0 Copyright (c) Steve Scherf et al.
# Submitted via: Collectorz.com_Music_Collector 6.11
#
DISCID=9506800c
DTITLE=Various Artist - Merry Christmas, Country Style
DYEAR=1900
DGENRE=Christmas - Country
TTITLE0=Renny Martin - Santa Claus Is From The South
TTITLE1=Red Sovine - Christmas Love Song
TTITLE2=The Cowboy Copas - From The Manger To The Cross
TTITLE3=Hylo Brown - Christmas In The Hills
TTITLE4=Glenda raye - Santa's Workshop
TTITLE5=Johnny Bond - Here Was A Man
TTITLE6=The Lonesome Fiddlers - Christmas Time's A Comin'
TTITLE7=Red Sovine - Is There Really A Santa Claus
TTITLE8=The Willis Brothers - Jingle Jill and Jingle Joe
TTITLE9=Glenda raye - Christmas Candy In July
TTITLE10=Bobby Sykes - An Old Fashioned Christmas
TTITLE11=Renny Martin - Droppy Little Christmas Tree
EXTD=
EXTT0=
EXTT1=
EXTT2=
EXTT3=
EXTT4=
EXTT5=
EXTT6=
EXTT7=
EXTT8=
EXTT9=
EXTT10=
EXTT11=
PLAYORDER=
